<?xml version="1.0" encoding="utf-8"?>
<!-- Generator: Adobe Illustrator 24.3.0, SVG Export Plug-In . SVG Version: 6.00 Build 0)  -->
<svg version="1.1" id="logo" xmlns="http://www.w3.org/2000/svg" xmlns:xlink="http://www.w3.org/1999/xlink" x="0px" y="0px"
	 viewBox="0 0 500 500" style="enable-background:new 0 0 500 500;" xml:space="preserve">
<style type="text/css">
	.st0{display:none;}
	.st1{display:inline;fill:#EB3D00;}
	.st2{display:inline;fill:#FFFFFF;}
	.st3{display:inline;fill:none;}
	.st4{display:inline;}
	.st5{fill:#EB3D00;}
	.st6{fill:#FEF0E3;stroke:#EB3D00;stroke-width:4;stroke-miterlimit:10;}
	.st7{fill:none;stroke:#EB3D00;stroke-width:4;stroke-miterlimit:10;}
	.st8{display:none;fill:none;stroke:#FBB883;stroke-miterlimit:10;}
	.st9{fill:none;stroke:#FBB883;stroke-miterlimit:10;}
	.st10{fill:#FFFFFF;}
</style>
<image style="display:none;overflow:visible;" width="142" height="145" xlink:href="../../../../UNSORTED ITEMS/logo/base.png"  transform="matrix(3.4483 0 0 3.4483 5.1724 0)">
</image>
<g id="CIRCLES" class="st0">
	<circle id="OUTER_MOST_CIRCLE" class="st1" cx="250" cy="250" r="236.6"/>
	<circle id="INNER_MOST_CIRCLE" class="st2" cx="250" cy="250" r="176.3"/>
	<path id="SVGID_x5F_1_x5F_" class="st3" d="M250,437.5c-103.6,0-187.5-83.9-187.5-187.5S146.4,62.5,250,62.5S437.5,146.4,437.5,250
		S353.6,437.5,250,437.5z"/>
	<text class="st4">	<textPath  xlink:href="#SVGID_x5F_1_x5F_" startOffset="303.2877%">
<tspan  class="st10" style="font-family:'Montserrat-ExtraBold'; font-size:48px;">ST. XAVIER’S SCHOOL</tspan>	</textPath>
</text>
</g>
<g id="PETALS">
	<g id="PETAL_1">
		<path id="PETAL_1_L" class="st5" d="M191.6,258.7c-2.3-27.5-31.8-35-55.2-31C146.4,250.7,174.2,241.4,191.6,258.7z"/>
		<g id="PETAL_1_R">
			<path class="st5" d="M301.6,258.7c2.3-27.5,31.8-35,55.2-31C346.8,250.7,319,241.4,301.6,258.7z"/>
		</g>
	</g>
	<g id="PETA_x3B__2">
		<path id="PETAL_2_L" class="st5" d="M195.1,272.9c-10.7-7.8-47.7-38.3-76.1,3C160.1,278.2,163.1,267.9,195.1,272.9z"/>
		<g id="PETAL_2_R">
			<path class="st5" d="M296.7,272.9c10.7-7.8,47.7-38.3,76.1,3C331.8,278.2,328.7,267.9,296.7,272.9z"/>
		</g>
	</g>
	<g id="PETAL_3">
		<path id="PETAL_3_L" class="st5" d="M208.6,289.6c-38-20.3-36.2,2.7-75.9,13.4C179.4,317.1,186.7,285.7,208.6,289.6z"/>
		<g id="PETAL_3_R">
			<path class="st5" d="M282,289.6c38-20.3,36.2,2.7,75.9,13.4C311.2,317.1,303.9,285.7,282,289.6z"/>
		</g>
	</g>
	<g id="PETAL_4">
		<path id="PETAL_4_L" class="st5" d="M222.7,300.1c-33.5-1.6-31.2,19.1-58.3,30.8C202.9,339.7,207.7,309.8,222.7,300.1z"/>
		<g id="PETAL_4_R">
			<path class="st5" d="M268.6,300.1c33.5-1.6,31.2,19.1,58.3,30.8C288.4,339.7,283.6,309.8,268.6,300.1z"/>
		</g>
	</g>
</g>
<g id="HEART">
	<path id="HEART_L" class="st5" d="M247.6,316.2c-4.2-8.5-20.2-10-25.6,0.1c-7.9,17.1,14.9,27.3,25.6,38.8L247.6,316.2z"/>
	<g id="HEART_R">
		<path class="st5" d="M247.6,316.2c4.2-8.5,20.2-10,25.6,0.1c7.9,17.1-14.9,27.3-25.6,38.8L247.6,316.2z"/>
	</g>
</g>
<g id="CHRIST">
	<line id="V" class="st6" x1="249.9" y1="177.7" x2="249.9" y2="222.3"/>
	<line id="H" class="st7" x1="244.8" y1="182.8" x2="255.2" y2="182.8"/>
</g>
<g id="SUN_RAYS">
	<ellipse id="REF" class="st8" cx="249.8" cy="200" rx="25.5" ry="41.3"/>
	<g id="L">
		<line class="st9" x1="224.3" y1="201.6" x2="204.3" y2="201.6"/>
	</g>
	<g id="R">
		<line class="st9" x1="295.4" y1="201.6" x2="275.4" y2="201.6"/>
	</g>
	<g id="T">
		<line class="st9" x1="250" y1="138" x2="250" y2="158"/>
	</g>
	<g id="B">
		<line class="st9" x1="250" y1="241.3" x2="250" y2="261.3"/>
	</g>
	<g id="LT">
		<line class="st9" x1="216" y1="159.4" x2="230.1" y2="173.6"/>
	</g>
	<g id="LB">
		<line class="st9" x1="217.2" y1="242.5" x2="231.4" y2="228.3"/>
	</g>
	<g id="RB">
		<line class="st9" x1="282.5" y1="242.5" x2="268.3" y2="228.3"/>
	</g>
	<g id="RT">
		<line class="st9" x1="283.6" y1="159.4" x2="269.5" y2="173.6"/>
	</g>
	<g id="T_1_">
		<line class="st9" x1="214.3" y1="183.6" x2="225.5" y2="188.7"/>
	</g>
	<g id="T_4_">
		<line class="st9" x1="214.8" y1="220.7" x2="226.3" y2="216.3"/>
	</g>
	<g id="T_8_">
		<line class="st9" x1="232.4" y1="248.1" x2="238.2" y2="237.3"/>
	</g>
	<g id="T_13_">
		<line class="st9" x1="233.5" y1="152.8" x2="237.1" y2="164.5"/>
	</g>
	<g id="T_15_">
		<line class="st9" x1="268.3" y1="153.2" x2="262.5" y2="164.1"/>
	</g>
	<g id="T_11_">
		<line class="st9" x1="265.2" y1="248.6" x2="261.6" y2="236.8"/>
	</g>
	<g id="T_6_">
		<line class="st9" x1="273.3" y1="216" x2="284.5" y2="221"/>
	</g>
	<g id="T_3_">
		<line class="st9" x1="285.9" y1="184" x2="274.4" y2="188.4"/>
	</g>
</g>
<polygon id="STAR_L" class="st10" points="46.4,267 50.5,279.6 63.7,279.6 53,287.3 57.1,299.9 46.4,292.1 35.7,299.9 39.8,287.3 
	29.1,279.6 42.3,279.6 "/>
<polygon id="STAR_L_1_" class="st10" points="455.4,267 459.5,279.6 472.7,279.6 462,287.3 466.1,299.9 455.4,292.1 444.7,299.9 
	448.8,287.3 438.1,279.6 451.3,279.6 "/>
</svg>
