<?xml version="1.0" encoding="utf-8"?>
<!-- Generator: Adobe Illustrator 24.3.0, SVG Export Plug-In . SVG Version: 6.00 Build 0)  -->
<svg version="1.1"
	 id="SKYLON" xmlns:cc="http://web.resource.org/cc/" xmlns:dc="http://purl.org/dc/elements/1.1/" xmlns:inkscape="http://www.inkscape.org/namespaces/inkscape" xmlns:rdf="http://www.w3.org/1999/02/22-rdf-syntax-ns#" xmlns:sodipodi="http://sodipodi.sourceforge.net/DTD/sodipodi-0.dtd" xmlns:svg="http://www.w3.org/2000/svg"
	 xmlns="http://www.w3.org/2000/svg" xmlns:xlink="http://www.w3.org/1999/xlink" x="0px" y="0px" viewBox="0 0 450 400"
	 style="enable-background:new 0 0 450 400;" xml:space="preserve">
<style type="text/css">
	.st0{fill:#0065B9;}
	.st1{fill:#FFFFFF;fill-opacity:0.7329;}
	.st2{fill-rule:evenodd;clip-rule:evenodd;fill:#FF0000;}
	.st3{fill-rule:evenodd;clip-rule:evenodd;fill:#FFFFFF;}
	.st4{fill:#FFFFFF;}
</style>
<g id="LOGO">
	<g id="BASE_1_">
		<path id="BASE" d="M225,7.1c-11.5,0-16.8,5.5-22.7,15.2c-1.6,2.6-3.2,5.5-5,8.7l-2,3.4c0,0,0,0,0,0L17.9,341.7l-7.7,13.3
			c-4.9,9.2-6.6,16.3-1.1,25.8c5.6,9.8,12.8,11.7,23.7,12h14.7h0h354.9h14.6c10.9-0.3,18.1-2.2,23.8-12c5.3-9.3,3.9-16.2-0.6-25
			l-0.2-0.3l-8-13.9L254.6,34.3c-0.4-0.6-0.7-1.2-1-1.8l-5.5-9.6l-0.3-0.4C241.8,12.7,236.6,7.1,225,7.1z"/>
		<path id="SUB_BASE" class="st0" d="M223.5,20.4c-2.7,0.1-3.5,0.6-4.7,1.5c-1.2,0.9-3.1,3.1-5.5,6.9l-5.3,9.2l-2,3.4L51.6,309
			c0,0,0,0,0,0l-2.1,3.7l-5.8,10l0,0c0,0.1-0.1,0.1-0.1,0.2c-1.8,3.6-2.4,5.8-2.5,7.2c-0.1,1.4,0,2.6,1.7,5.6
			c1.8,3.2,2.8,3.7,4.2,4.4s3.9,1.2,8.7,1.3h323.7H394c4.8-0.1,7.3-0.7,8.7-1.3c1.4-0.6,2.3-1.2,4.2-4.4c1.8-3,1.8-4.2,1.7-5.6
			c-0.1-1.4-0.7-3.6-2.5-7.1l-0.2-0.3l-7.9-13.6c0,0,0,0,0,0L243.5,41.3l-7.2-12.5c-2.4-3.8-4.3-6-5.5-7c-1.3-1-2.2-1.5-6-1.5
			C224.3,20.4,223.9,20.4,223.5,20.4z"/>
	</g>
	<g id="EARTH_1_">
		<path id="ATMOSPHERE" class="st1" d="M224.7,212c-79,0-145.6,52.1-165.1,122.8h330.2C370.3,264.1,303.7,212,224.7,212z"/>
		<path id="EARTH" d="M224.7,226.2c-76.2,0-140.5,45.8-161.1,108.5h322.2C365.3,272,300.9,226.2,224.7,226.2z"/>
	</g>
	<g id="ROCKET_STRIPE">
		<path id="ROCKET_STRIPE_RED" sodipodi:nodetypes="cccc" class="st2" d="M225.2,54.1c0.3,100.8,10.1,236,47.2,278.7h-94.3
			C215.2,290.1,224.9,155,225.2,54.1z"/>
		<path id="ROCKET_STRIPE_WHITE" sodipodi:nodetypes="cccc" class="st3" d="M225.2,54.1c0.1,100.8,4.2,236,19.7,278.7h-39.4
			C221,290.1,225.1,155,225.2,54.1z"/>
	</g>
	<g id="STARS">
		<path id="MAIN_STAR" class="st4" d="M225.2,57.3c-5,30,0,24.9-30,30c29.9,5,24.9,0,30,30c5-30,0-24.9,30-30
			C225.3,82.3,230.3,87.3,225.2,57.3z"/>
		<g id="SMALL_STARS">
			<path id="STAR" class="st4" d="M198.7,139.4c-2,12.3,0,10.2-12.3,12.3c12.3,2,10.2,0,12.3,12.3c2-12.3,0-10.2,12.3-12.3
				C198.7,149.7,200.7,151.7,198.7,139.4z"/>
			<path id="STAR_1_" class="st4" d="M255.1,169.6c-2,12.3,0,10.2-12.3,12.3c12.3,2,10.2,0,12.3,12.3c2-12.3,0-10.2,12.3-12.3
				C255.1,179.9,257.2,181.9,255.1,169.6z"/>
			<path id="STAR_2_" class="st4" d="M269.3,117.6c-1.4,8.7,0,7.2-8.7,8.7c8.7,1.4,7.2,0,8.7,8.7c1.4-8.7,0-7.2,8.7-8.7
				C269.4,124.8,270.8,126.3,269.3,117.6z"/>
			<path id="STAR_3_" class="st4" d="M247.5,108c-1.4,8.7,0,7.2-8.7,8.7c8.7,1.4,7.2,0,8.7,8.7c1.4-8.7,0-7.2,8.7-8.7
				C247.5,115.2,248.9,116.7,247.5,108z"/>
			<path id="STAR_4_" class="st4" d="M206,104.1c-1.4,8.7,0,7.2-8.7,8.7c8.7,1.4,7.2,0,8.7,8.7c1.4-8.7,0-7.2,8.7-8.7
				C206,111.3,207.4,112.7,206,104.1z"/>
			<path id="STAR_5_" class="st4" d="M294.1,174.1c-1.4,8.7,0,7.2-8.7,8.7c8.7,1.4,7.2,0,8.7,8.7c1.4-8.7,0-7.2,8.7-8.7
				C294.2,181.3,295.6,182.7,294.1,174.1z"/>
			<path id="STAR_6_" class="st4" d="M283.3,192.7c-1.4,8.7,0,7.2-8.7,8.7c8.7,1.4,7.2,0,8.7,8.7c1.4-8.7,0-7.2,8.7-8.7
				C283.3,200,284.8,201.4,283.3,192.7z"/>
			<path id="STAR_7_" class="st4" d="M161.3,187.3c-1.4,8.7,0,7.2-8.7,8.7c8.7,1.4,7.2,0,8.7,8.7c1.4-8.7,0-7.2,8.7-8.7
				C161.3,194.6,162.7,196,161.3,187.3z"/>
			<path id="STAR_8_" class="st4" d="M142.9,178.2c-1.4,8.7,0,7.2-8.7,8.7c8.7,1.4,7.2,0,8.7,8.7c1.4-8.7,0-7.2,8.7-8.7
				C142.9,185.5,144.3,186.9,142.9,178.2z"/>
			<path id="STAR_9_" class="st4" d="M135.7,207.2c-1.4,8.7,0,7.2-8.7,8.7c8.7,1.4,7.2,0,8.7,8.7c1.4-8.7,0-7.2,8.7-8.7
				C135.8,214.5,137.2,215.9,135.7,207.2z"/>
		</g>
	</g>
	<g id="SKYLON_1_">
		<path id="N" class="st4" d="M287.2,380h-4.1v-18.9c0-3.1,1.8-5.1,5.4-5.1c3.3,0,4.8,1.7,5.7,4.4l6.9,15.1c0.3,0.6,0.7,1,1.5,1
			c0.9,0,1.4-0.5,1.4-1.3v-18.7h4.2v18.9c0,3.1-1.8,5.2-5.4,5.2c-3.3,0-4.8-1.7-5.8-4.4l-6.9-15.1c-0.3-0.7-0.7-1-1.5-1
			c-0.9,0-1.4,0.5-1.4,1.4V380z"/>
		<path id="O" class="st4" d="M263.1,356.4c6.9,0,10.7,3.9,10.7,11.9c0,7.9-3.8,11.8-10.7,11.8h-3.2c-6.9,0-10.7-3.9-10.7-11.8
			c0-7.9,3.8-11.9,10.7-11.9H263.1z M259.8,360.5c-4.5,0-6.5,2.3-6.5,7.7c0,5.4,2,7.6,6.5,7.6h3.2c4.6,0,6.5-2.2,6.5-7.7
			c0-5.4-2-7.7-6.5-7.7H259.8z"/>
		<path id="L" class="st4" d="M228.3,356.4v15.4c0,2.3,1.1,4.1,4.8,4.1h9.2v4.1h-9.4c-6.3,0-8.7-3.4-8.7-8.2v-15.5H228.3z"/>
		<path id="Y" class="st4" d="M198.3,356.4l6.6,10.1l6.7-10.1h4.9l-9.5,13.4V380h-4.2v-10.2l-9.5-13.4H198.3z"/>
		<path id="K" class="st4" d="M170.6,356.4v10h2.3c4.1,0,4.7-0.3,6.1-2.9l3.6-7.1h4.4l-3.7,7.4c-1,2.1-2.2,3.5-4.1,4.3
			c2.2,0.6,3.3,1.8,4.7,4.6l3.8,7.4H183l-3.6-7c-1.3-2.5-2.1-2.9-6.6-2.9h-2.3v9.9h-4.1v-23.6H170.6z"/>
		<path id="S" class="st4" d="M155.5,356.4v4.1h-12.1c-2.1,0-3.1,1.2-3.1,2.8c0,1.4,0.7,2.8,3.5,2.8h5.5c6.4,0,7.9,3.6,7.9,7
			c0,4-2.1,6.9-7.5,6.9h-13.2v-4.1h13.3c2.2,0,3.3-1.2,3.3-2.9c0-1.5-0.8-2.9-3.7-2.9H144c-6.3,0-7.8-3.5-7.8-6.8
			c0-3.9,2.1-6.8,7.4-6.8H155.5z"/>
	</g>
</g>
</svg>
